# xmcd
#
# Track frame offsets:
# 182
# 13272
# 28357
# 40792
# 53615
# 64635
# 78035
# 89675
# 102830
# 115327
# 129260
# 141267
# 152907
# 163135
# 176962
# 188232
# 202715
# 213357
# 224685
# 237880
#
# Disc length: 3330 seconds
#
#
# Revision: 2
# Processed by: cddbd v1.4PL0 Copyright (c) Steve Scherf et al.
# Submitted via: FreeRIP 2.40 
#
DISCID=1d0d0014
DTITLE=Elmore James - The Immortal Elmore James
DYEAR=1900
DGENRE=Blues
TTITLE0=Dust My Broom
TTITLE1=Everyday I Have The Blues
TTITLE2=The Sky Is Crying
TTITLE3=I'm Worried
TTITLE4=Coming Home
TTITLE5=Stranger Blues
TTITLE6=Fine Little Mama
TTITLE7=Make My Dreams Come True
TTITLE8=Early One Morning
TTITLE9=It Hurts Me Too
TTITLE10=Mean Mistreatin' Mama
TTITLE11=Shake Your Moneymaker
TTITLE12=Can't Stop Loving My Baby
TTITLE13=My Bleeding Heart
TTITLE14=Look On Yonder Wall
TTITLE15=Hand In Hand
TTITLE16=I Done Somebody Wrong
TTITLE17=Rollin' And Tumblin'
TTITLE18=Standing At The Crossroads
TTITLE19=I Can't Stop Lovin' You
EXTD=
EXTT0=
EXTT1=
EXTT2=
EXTT3=
EXTT4=
EXTT5=
EXTT6=
EXTT7=
EXTT8=
EXTT9=
EXTT10=
EXTT11=
EXTT12=
EXTT13=
EXTT14=
EXTT15=
EXTT16=
EXTT17=
EXTT18=
EXTT19=
PLAYORDER=
